<svg xmlns="http://www.w3.org/2000/svg" version="1.0" viewBox="0 0 512 512" class="h-[1em]"><path d="M58 17.6c-19.5 5.1-35.5 21.2-40.5 40.9-1.3 5.1-1.5 23.5-1.5 141 0 148.8-.4 140.2 6.3 153.5 4.3 8.7 15 19.4 23.7 23.7 9.9 5 16.6 6.3 31.7 6.3H91v-37H80.8c-5.7 0-12.1-.5-14.3-1.1-5.1-1.4-11-7.3-12.4-12.4-1.5-5.6-1.5-260.4 0-266 1.4-5.1 7.3-11 12.4-12.4 5.6-1.5 260.4-1.5 266 0 5.1 1.4 11 7.3 12.4 12.4.6 2.2 1.1 8.4 1.1 13.7V90h37V77.2c0-8.1-.6-14.9-1.5-18.7-5.1-19.9-21.1-35.9-41-41-8.7-2.2-274-2.2-282.5.1z"></path> <path d="M175.3 129.1c-22.7 3.8-41 21.6-45.8 44.4-2.2 10.5-2.2 266.5 0 277 4.6 22 22 39.4 44 44 10.5 2.2 266.5 2.2 277 0 22.1-4.6 39.4-21.9 44-44 2.2-10.5 2.2-266.5 0-277-4.2-19.9-18.7-36-38.5-42.8l-6.5-2.2-134.5-.1c-74-.1-136.8.2-139.7.7zm272.5 38.8c4.2 2.2 6.3 4.3 8.6 8.8 1.4 2.9 1.6 15.5 1.6 135.3 0 119.8-.2 132.4-1.6 135.3-2.3 4.5-4.4 6.6-8.6 8.8-3.6 1.8-8.2 1.9-135.8 1.9-119.8 0-132.4-.2-135.3-1.6-4.5-2.3-6.6-4.4-8.8-8.6-1.8-3.6-1.9-8.2-1.9-135.8 0-127.6.1-132.2 1.9-135.8 2.1-4.1 4.2-6.2 8.6-8.5 2.7-1.5 16.5-1.6 135.3-1.7 127.9 0 132.4.1 136 1.9z"></path></svg>