<svg width="12" height="12" viewBox="0 0 12 12" fill="none" xmlns="http://www.w3.org/2000/svg"><path d="M5.4 5.4L6.6 5.4L6.6 9L5.4 9L5.4 5.4ZM5.4 3L6.6 3L6.6 4.2L5.4 4.2L5.4 3ZM6 12C6.78793 12 7.56815 11.8448 8.2961 11.5433C9.02405 11.2417 9.68549 10.7998 10.2426 10.2426C11.3679 9.11742 12 7.5913 12 6C12 4.4087 11.3679 2.88258 10.2426 1.75736C9.68549 1.20021 9.02406 0.75825 8.2961 0.456722C7.56815 0.155194 6.78793 -4.55654e-07 6 -5.24537e-07C4.4087 -6.63652e-07 2.88258 0.63214 1.75736 1.75736C0.632142 2.88258 6.63652e-07 4.4087 5.24537e-07 6C4.55654e-07 6.78793 0.155195 7.56815 0.456723 8.2961C0.75825 9.02405 1.20021 9.68549 1.75736 10.2426C2.31451 10.7998 2.97595 11.2417 3.7039 11.5433C4.43185 11.8448 5.21207 12 6 12Z" fill="#EF665B"></path></svg>